<svg width="24" height="24" viewBox="0 0 24 24" fill="none" xmlns="http://www.w3.org/2000/svg">
<path d="M15.24 22.27H15.11C10.67 22.27 8.52997 20.52 8.15997 16.6C8.11997 16.19 8.41997 15.82 8.83997 15.78C9.24997 15.74 9.61997 16.05 9.65997 16.46C9.94997 19.6 11.43 20.77 15.12 20.77H15.25C19.32 20.77 20.76 19.33 20.76 15.26V8.74001C20.76 4.67001 19.32 3.23001 15.25 3.23001H15.12C11.41 3.23001 9.92997 4.42001 9.65997 7.62001C9.60997 8.03001 9.26997 8.34001 8.83997 8.30001C8.74141 8.29231 8.64534 8.26523 8.55727 8.22032C8.46921 8.1754 8.39087 8.11355 8.32677 8.03829C8.26266 7.96304 8.21404 7.87586 8.1837 7.78178C8.15336 7.68769 8.1419 7.58854 8.14997 7.49001C8.48997 3.51001 10.64 1.73001 15.11 1.73001H15.24C20.15 1.73001 22.25 3.83001 22.25 8.74001V15.26C22.25 20.17 20.15 22.27 15.24 22.27Z" fill="black"/>
<path d="M14.88 12.75H2C1.59 12.75 1.25 12.41 1.25 12C1.25 11.59 1.59 11.25 2 11.25H14.88C15.0789 11.25 15.2697 11.329 15.4103 11.4697C15.551 11.6103 15.63 11.8011 15.63 12C15.63 12.1989 15.551 12.3897 15.4103 12.5303C15.2697 12.671 15.0789 12.75 14.88 12.75V12.75Z" fill="black"/>
<path d="M12.65 16.1C12.46 16.1 12.27 16.03 12.12 15.88C11.9806 15.7389 11.9023 15.5484 11.9023 15.35C11.9023 15.1516 11.9806 14.9611 12.12 14.82L14.94 12L12.12 9.18C11.9806 9.03886 11.9023 8.84843 11.9023 8.65C11.9023 8.45157 11.9806 8.26113 12.12 8.12C12.41 7.83 12.89 7.83 13.18 8.12L16.53 11.47C16.82 11.76 16.82 12.24 16.53 12.53L13.18 15.88C13.03 16.03 12.84 16.1 12.65 16.1V16.1Z" fill="black"/>
</svg>
