<svg width="15" height="14" viewBox="0 0 15 14" fill="none" xmlns="http://www.w3.org/2000/svg">
<g clip-path="url(#clip0_136_4)">
<path d="M11.875 5.37975C10.5813 5.37975 9.53125 4.45179 9.53125 3.30841C9.53125 2.16502 10.5813 1.23706 11.875 1.23706C13.1687 1.23706 14.2188 2.16502 14.2188 3.30841C14.2188 4.45179 13.1687 5.37975 11.875 5.37975ZM11.875 2.0656C11.1 2.0656 10.4688 2.62348 10.4688 3.30841C10.4688 3.99333 11.1 4.55121 11.875 4.55121C12.65 4.55121 13.2812 3.99333 13.2812 3.30841C13.2812 2.62348 12.65 2.0656 11.875 2.0656ZM7.5 8.14155H4.375C4.11875 8.14155 3.90625 7.95375 3.90625 7.72728C3.90625 7.50081 4.11875 7.31301 4.375 7.31301H7.5C7.75625 7.31301 7.96875 7.50081 7.96875 7.72728C7.96875 7.95375 7.75625 8.14155 7.5 8.14155ZM10 10.351H4.375C4.11875 10.351 3.90625 10.1632 3.90625 9.93672C3.90625 9.71025 4.11875 9.52245 4.375 9.52245H10C10.2562 9.52245 10.4688 9.71025 10.4688 9.93672C10.4688 10.1632 10.2562 10.351 10 10.351Z" fill="black"/>
<path d="M9.375 13.1128H5.625C2.23125 13.1128 0.78125 11.8313 0.78125 8.832V5.51784C0.78125 2.51853 2.23125 1.23706 5.625 1.23706H8.75C9.00625 1.23706 9.21875 1.42486 9.21875 1.65133C9.21875 1.8778 9.00625 2.0656 8.75 2.0656H5.625C2.74375 2.0656 1.71875 2.97147 1.71875 5.51784V8.832C1.71875 11.3784 2.74375 12.2842 5.625 12.2842H9.375C12.2563 12.2842 13.2812 11.3784 13.2812 8.832V6.0702C13.2812 5.84373 13.4938 5.65593 13.75 5.65593C14.0062 5.65593 14.2188 5.84373 14.2188 6.0702V8.832C14.2188 11.8313 12.7687 13.1128 9.375 13.1128Z" fill="black"/>
</g>
<defs>
<clipPath id="clip0_136_4">
<rect width="15" height="13.2566" fill="white" transform="translate(0 0.5466)"/>
</clipPath>
</defs>
</svg>
