<svg width="15" height="14" viewBox="0 0 15 14" fill="none" xmlns="http://www.w3.org/2000/svg">
<path d="M7.5 8.94822C6.20625 8.94822 5.15625 8.02026 5.15625 6.87687C5.15625 5.73349 6.20625 4.80553 7.5 4.80553C8.79375 4.80553 9.84375 5.73349 9.84375 6.87687C9.84375 8.02026 8.79375 8.94822 7.5 8.94822ZM7.5 5.63407C6.725 5.63407 6.09375 6.19195 6.09375 6.87687C6.09375 7.5618 6.725 8.11968 7.5 8.11968C8.275 8.11968 8.90625 7.5618 8.90625 6.87687C8.90625 6.19195 8.275 5.63407 7.5 5.63407Z" fill="black"/>
<path d="M9.50625 12.5054C9.375 12.5054 9.24375 12.4888 9.1125 12.4612C8.725 12.3673 8.4 12.1519 8.19375 11.8481L8.11875 11.7376C7.75 11.1742 7.24375 11.1742 6.875 11.7376L6.80625 11.8426C6.6 12.1519 6.275 12.3728 5.8875 12.4612C5.49375 12.5551 5.0875 12.5054 4.74375 12.3231L3.66875 11.7763C3.47986 11.6806 3.31416 11.553 3.18113 11.4007C3.0481 11.2484 2.95034 11.0745 2.89345 10.8887C2.83657 10.703 2.82166 10.5092 2.8496 10.3184C2.87753 10.1276 2.94775 9.94356 3.05625 9.77676C3.2375 9.49506 3.2875 9.24097 3.18125 9.08079C3.075 8.9206 2.80625 8.8267 2.4375 8.8267C1.525 8.8267 0.78125 8.16939 0.78125 7.36295V6.3908C0.78125 5.58435 1.525 4.92705 2.4375 4.92705C2.80625 4.92705 3.075 4.83315 3.18125 4.67296C3.2875 4.51278 3.24375 4.25869 3.05625 3.97699C2.8375 3.64005 2.78125 3.24235 2.89375 2.86675C3.00625 2.48562 3.28125 2.17077 3.66875 1.97745L4.75 1.43061C5.45625 1.06053 6.3875 1.27595 6.8125 1.91117L6.8875 2.02164C7.25625 2.58504 7.7625 2.58504 8.13125 2.02164L8.2 1.91669C8.625 1.27595 9.55625 1.06053 10.2688 1.43614L11.3437 1.98297C11.5326 2.07862 11.6983 2.20624 11.8314 2.35854C11.9644 2.51083 12.0622 2.68481 12.119 2.87052C12.1759 3.05623 12.1908 3.25003 12.1629 3.44084C12.135 3.63164 12.0647 3.81571 11.9562 3.98251C11.775 4.26422 11.725 4.5183 11.8313 4.67848C11.9375 4.83867 12.2063 4.93257 12.575 4.93257C13.4875 4.93257 14.2313 5.58988 14.2313 6.39632V7.36847C14.2313 8.17492 13.4875 8.83222 12.575 8.83222C12.2063 8.83222 11.9375 8.92613 11.8313 9.08631C11.725 9.24649 11.7687 9.50058 11.9562 9.78228C12.175 10.1192 12.2375 10.5169 12.1187 10.8925C12.0644 11.0794 11.9677 11.2546 11.8345 11.4074C11.7013 11.5603 11.5343 11.6877 11.3437 11.7818L10.2625 12.3287C10.025 12.4447 9.76875 12.5054 9.50625 12.5054V12.5054ZM7.5 10.4617C8.05625 10.4617 8.575 10.771 8.93125 11.3178L9 11.4228C9.075 11.5388 9.2 11.6216 9.35 11.6548C9.5 11.6879 9.65 11.6713 9.775 11.6051L10.8563 11.0527C11.0213 10.9686 11.1421 10.8303 11.1924 10.6679C11.2427 10.5056 11.2185 10.3322 11.125 10.1855C10.7687 9.64419 10.725 9.08631 11 8.66099C11.275 8.23568 11.8438 7.99264 12.5563 7.99264C12.9563 7.99264 13.275 7.71094 13.275 7.35743V6.38527C13.275 6.03729 12.9563 5.75006 12.5563 5.75006C11.8438 5.75006 11.275 5.50702 11 5.08171C10.725 4.65639 10.7687 4.09851 11.125 3.5572C11.2187 3.41358 11.2437 3.24235 11.1937 3.07664C11.1437 2.91094 11.025 2.77837 10.8625 2.68999L9.78125 2.14316C9.71602 2.10935 9.64389 2.08725 9.56898 2.07812C9.49408 2.06899 9.41787 2.073 9.34472 2.08993C9.27157 2.10686 9.20292 2.13638 9.14269 2.17679C9.08247 2.2172 9.03186 2.26771 8.99375 2.32543L8.925 2.43038C8.56875 2.97722 8.05 3.28654 7.49375 3.28654C6.9375 3.28654 6.41875 2.97722 6.0625 2.43038L5.99375 2.31991C5.91608 2.20703 5.79163 2.12539 5.64688 2.09238C5.50214 2.05937 5.34853 2.07758 5.21875 2.14316L4.1375 2.69552C3.97249 2.77964 3.8517 2.91791 3.80138 3.08028C3.75105 3.24266 3.77527 3.41603 3.86875 3.56272C4.225 4.10403 4.26875 4.66191 3.99375 5.08723C3.71875 5.51255 3.15 5.75558 2.4375 5.75558C2.0375 5.75558 1.71875 6.03729 1.71875 6.3908V7.36295C1.71875 7.71094 2.0375 7.99816 2.4375 7.99816C3.15 7.99816 3.71875 8.2412 3.99375 8.66652C4.26875 9.09183 4.225 9.64972 3.86875 10.191C3.775 10.3346 3.75 10.5059 3.8 10.6716C3.85 10.8373 3.96875 10.9699 4.13125 11.0582L5.2125 11.6051C5.34375 11.6769 5.5 11.6934 5.64375 11.6603C5.79375 11.6272 5.91875 11.5388 6 11.4228L6.06875 11.3178C6.425 10.7765 6.94375 10.4617 7.5 10.4617Z" fill="black"/>
</svg>
