<svg width="15" height="15" viewBox="0 0 15 15" fill="none" xmlns="http://www.w3.org/2000/svg">
<path d="M9.375 13.4637H5.625C2.23125 13.4637 0.78125 12.1823 0.78125 9.18296V5.86881C0.78125 2.8695 2.23125 1.58803 5.625 1.58803H9.375C12.7687 1.58803 14.2188 2.8695 14.2188 5.86881V9.18296C14.2188 12.1823 12.7687 13.4637 9.375 13.4637ZM5.625 2.41657C2.74375 2.41657 1.71875 3.32244 1.71875 5.86881V9.18296C1.71875 11.7293 2.74375 12.6352 5.625 12.6352H9.375C12.2563 12.6352 13.2812 11.7293 13.2812 9.18296V5.86881C13.2812 3.32244 12.2563 2.41657 9.375 2.41657H5.625Z" fill="black"/>
<path d="M9.6875 11.5305C8.7375 11.5305 7.96875 10.8511 7.96875 10.0115V5.04027C7.96875 4.20069 8.7375 3.52129 9.6875 3.52129C10.6375 3.52129 11.4062 4.20069 11.4062 5.04027V10.0115C11.4062 10.8511 10.6375 11.5305 9.6875 11.5305ZM9.6875 4.34982C9.25625 4.34982 8.90625 4.65915 8.90625 5.04027V10.0115C8.90625 10.1946 8.98856 10.3702 9.13507 10.4997C9.28159 10.6292 9.4803 10.702 9.6875 10.702C9.8947 10.702 10.0934 10.6292 10.2399 10.4997C10.3864 10.3702 10.4688 10.1946 10.4688 10.0115V5.04027C10.4688 4.65915 10.1187 4.34982 9.6875 4.34982ZM5.3125 11.5305C4.3625 11.5305 3.59375 10.8511 3.59375 10.0115V8.07825C3.59375 7.23866 4.3625 6.55926 5.3125 6.55926C6.2625 6.55926 7.03125 7.23866 7.03125 8.07825V10.0115C7.03125 10.8511 6.2625 11.5305 5.3125 11.5305ZM5.3125 7.3878C4.88125 7.3878 4.53125 7.69712 4.53125 8.07825V10.0115C4.53125 10.1946 4.61356 10.3702 4.76007 10.4997C4.90659 10.6292 5.1053 10.702 5.3125 10.702C5.5197 10.702 5.71841 10.6292 5.86493 10.4997C6.01144 10.3702 6.09375 10.1946 6.09375 10.0115V8.07825C6.09375 7.69712 5.74375 7.3878 5.3125 7.3878Z" fill="black"/>
</svg>
