<svg width="15" height="14" viewBox="0 0 15 14" fill="none" xmlns="http://www.w3.org/2000/svg">
<g clip-path="url(#clip0_135_33)">
<path d="M5.72459 7.03293H5.67459C5.63735 7.02739 5.59933 7.02739 5.56209 7.03293C3.74959 6.98321 2.38084 5.72383 2.38084 4.17171C2.38084 2.59196 3.83709 1.30496 5.62459 1.30496C7.41209 1.30496 8.86834 2.59196 8.86834 4.17171C8.86209 5.72383 7.48709 6.98321 5.74334 7.03293H5.72459V7.03293ZM5.62459 2.1335C5.01344 2.13496 4.4278 2.35017 3.99565 2.73209C3.5635 3.11401 3.31999 3.63159 3.31834 4.17171C3.31834 5.27642 4.29334 6.16572 5.53709 6.20439C5.57459 6.19886 5.65584 6.19886 5.73709 6.20439C6.96209 6.15467 7.92459 5.26538 7.93084 4.17171C7.92919 3.63159 7.68568 3.11401 7.25353 2.73209C6.82138 2.35017 6.23574 2.13496 5.62459 2.1335V2.1335ZM10.3365 7.10473C10.3177 7.10473 10.299 7.10473 10.2802 7.09921C10.024 7.1213 9.76146 6.96112 9.73646 6.73465C9.71146 6.50818 9.86771 6.30381 10.124 6.27619C10.199 6.27067 10.2802 6.27067 10.349 6.27067C11.2615 6.22648 11.974 5.56365 11.974 4.75168C11.974 3.9121 11.2052 3.2327 10.2552 3.2327C10.194 3.23343 10.1331 3.22339 10.0763 3.20318C10.0195 3.18297 9.96774 3.15298 9.92413 3.11495C9.88052 3.07692 9.84589 3.03161 9.82226 2.98166C9.79863 2.9317 9.78646 2.87809 9.78646 2.82395C9.78646 2.59748 9.99897 2.40968 10.2552 2.40968C10.9592 2.41114 11.6339 2.65894 12.1316 3.09887C12.6294 3.5388 12.9098 4.13505 12.9115 4.75721C12.9115 6.02763 11.7865 7.05502 10.3552 7.10473H10.3365ZM5.73271 13.0702C4.50771 13.0702 3.27646 12.794 2.34521 12.2417C1.47646 11.7335 1.00146 11.0375 1.00146 10.2808C1.00146 9.52406 1.47646 8.82257 2.34521 8.30888C4.22021 7.20968 7.25771 7.20968 9.12021 8.30888C9.98271 8.81705 10.464 9.51302 10.464 10.2697C10.464 11.0265 9.98896 11.728 9.12021 12.2417C8.18271 12.794 6.95771 13.0702 5.73271 13.0702ZM2.86396 9.00485C2.26396 9.35836 1.93896 9.81129 1.93896 10.2863C1.93896 10.7558 2.27021 11.2088 2.86396 11.5567C4.42021 12.4792 7.04521 12.4792 8.60146 11.5567C9.20146 11.2032 9.52646 10.7503 9.52646 10.2753C9.52646 9.80577 9.19521 9.35283 8.60146 9.00485C7.04521 8.08793 4.42021 8.08793 2.86396 9.00485ZM11.4615 12.076C11.2427 12.076 11.049 11.9434 11.0052 11.7445C10.981 11.637 11.0054 11.5253 11.0731 11.4335C11.1409 11.3416 11.2466 11.2768 11.3677 11.2529C11.7615 11.1811 12.124 11.0431 12.4052 10.8497C12.7615 10.6122 12.9552 10.3139 12.9552 9.99909C12.9552 9.68425 12.7615 9.38597 12.4115 9.15398C12.1365 8.96618 11.7927 8.83362 11.3865 8.75076C11.2649 8.72623 11.1592 8.6602 11.0924 8.56708C11.0257 8.47395 11.0033 8.36128 11.0302 8.25364C11.0865 8.0327 11.3365 7.88908 11.5927 7.93879C12.1302 8.04374 12.599 8.23154 12.9802 8.49115C13.5615 8.8778 13.8927 9.42464 13.8927 9.99909C13.8927 10.5735 13.5552 11.1204 12.974 11.5126C12.5865 11.7777 12.099 11.971 11.5615 12.0649C11.524 12.076 11.4927 12.076 11.4615 12.076V12.076Z" fill="black"/>
</g>
<defs>
<clipPath id="clip0_135_33">
<rect width="15" height="13.2566" fill="white" transform="translate(0 0.614502)"/>
</clipPath>
</defs>
</svg>
